<?xml version="1.0" encoding="UTF-8" standalone="no"?>
<!-- Created with Inkscape (http://www.inkscape.org/) -->

<svg
   width="65.777496mm"
   height="69.368286mm"
   viewBox="0 0 65.777496 69.368286"
   version="1.1"
   id="svg1"
   inkscape:version="1.4.4 (dcaf3e7d9e, 2026-05-05)"
   sodipodi:docname="black-skull.svg"
   xmlns:inkscape="http://www.inkscape.org/namespaces/inkscape"
   xmlns:sodipodi="http://sodipodi.sourceforge.net/DTD/sodipodi-0.dtd"
   xmlns="http://www.w3.org/2000/svg"
   xmlns:svg="http://www.w3.org/2000/svg">
  <sodipodi:namedview
     id="namedview1"
     pagecolor="#ffffff"
     bordercolor="#000000"
     borderopacity="0.25"
     inkscape:showpageshadow="2"
     inkscape:pageopacity="0.0"
     inkscape:pagecheckerboard="0"
     inkscape:deskcolor="#d1d1d1"
     inkscape:document-units="mm"
     inkscape:zoom="0.7180275"
     inkscape:cx="124.64704"
     inkscape:cy="130.91421"
     inkscape:window-width="1854"
     inkscape:window-height="1011"
     inkscape:window-x="0"
     inkscape:window-y="0"
     inkscape:window-maximized="1"
     inkscape:current-layer="layer1" />
  <defs
     id="defs1" />
  <g
     inkscape:label="Camada 1"
     inkscape:groupmode="layer"
     id="layer1"
     transform="translate(-71.966683,-113.77083)">
    <g
       id="g1">
      <path
         id="path33"
         d="m 131.41184,159.17861 c 0.0212,0.0699 0.0413,0.14006 0.0674,0.2092 0.63359,1.67181 2.50225,2.51354 4.17406,1.87995 1.67146,-0.63323 2.51355,-2.5019 1.87996,-4.17371 -0.48789,-1.28693 -1.7078,-2.07856 -3.00637,-2.08739 0.96661,-0.86712 1.35572,-2.26836 0.86818,-3.55529 -0.63359,-1.67181 -2.50225,-2.51354 -4.17407,-1.88031 -1.67146,0.63359 -2.51318,2.50226 -1.87995,4.17407 0.0265,0.0695 0.0579,0.13512 0.0882,0.20144 l -24.5738,9.31157 -24.574143,-9.31157 c 0.03069,-0.0663 0.06209,-0.13194 0.08819,-0.20144 0.633589,-1.67181 -0.20814,-3.54048 -1.879952,-4.17407 -1.671463,-0.63323 -3.540125,0.2085 -4.173715,1.88031 -0.48754,1.28693 -0.09843,2.68817 0.867833,3.55529 -1.298223,0.009 -2.518481,0.80046 -3.006018,2.08739 -0.63359,1.67181 0.208137,3.54048 1.879952,4.17371 1.671814,0.63359 3.540477,-0.20814 4.174066,-1.87995 0.02612,-0.0691 0.04622,-0.13935 0.06738,-0.2092 l 18.661591,7.07108 -18.661591,7.07143 c -0.02117,-0.0702 -0.04127,-0.14005 -0.06738,-0.20955 -0.633589,-1.67181 -2.502252,-2.51354 -4.174066,-1.87995 -1.671815,0.63324 -2.513542,2.50225 -1.879952,4.17364 0.487537,1.28736 1.707795,2.07892 3.006018,2.08788 -0.96661,0.86664 -1.355373,2.26822 -0.867833,3.55519 0.63359,1.67185 2.502252,2.51326 4.173715,1.87992 1.671812,-0.63348 2.513541,-2.50225 1.879952,-4.17393 -0.02611,-0.0692 -0.0575,-0.13518 -0.08819,-0.20147 l 24.574143,-9.3116 24.5738,9.3116 c -0.0303,0.0663 -0.0617,0.13229 -0.0882,0.20147 -0.63323,1.67168 0.20849,3.54045 1.87995,4.17393 1.67182,0.63334 3.54048,-0.20807 4.17407,-1.87992 0.48754,-1.28697 0.0984,-2.68855 -0.86818,-3.55519 1.29857,-0.009 2.51848,-0.80052 3.00637,-2.08788 0.63359,-1.67139 -0.2085,-3.5404 -1.87996,-4.17364 -1.67181,-0.63359 -3.54047,0.20814 -4.17406,1.87995 -0.0261,0.0695 -0.0462,0.13935 -0.0674,0.20955 l -18.66159,-7.07143 18.66159,-7.07108"
         style="fill:#000000;fill-opacity:1;fill-rule:nonzero;stroke:none;stroke-width:0.0352777" />
      <path
         id="path34"
         d="m 92.216464,130.76025 9.809336,3.92395 c 0.47731,0.19085 0.67557,0.76235 0.41311,1.20438 -0.70662,1.19239 -2.38725,3.13619 -5.679728,2.673 -4.625268,-0.65053 -5.535787,-4.80343 -5.693127,-6.96454 -0.04516,-0.61736 0.575382,-1.0668 1.150409,-0.83679 z m 12.020906,11.61979 v 3.89926 c 0,0.3115 -0.29881,0.53586 -0.59796,0.44908 l -1.49649,-0.43321 c -0.27057,-0.0783 -0.41098,-0.37606 -0.29915,-0.63465 l 1.49648,-3.46568 c 0.20144,-0.46638 0.89712,-0.32244 0.89712,0.1852 z m 1.38465,0 c 0,-0.50764 0.69568,-0.65158 0.89711,-0.1852 l 1.49649,3.46568 c 0.11147,0.25859 -0.0289,0.55633 -0.29951,0.63465 l -1.49649,0.43321 c -0.29915,0.0868 -0.5976,-0.13758 -0.5976,-0.44908 z m 2.06304,-7.69584 9.80934,-3.92395 c 0.57503,-0.23001 1.19557,0.21943 1.15041,0.83679 -0.15734,2.16111 -1.06786,6.31401 -5.69313,6.96454 -3.29247,0.46319 -4.97311,-1.48061 -5.68007,-2.673 -0.26212,-0.44203 -0.0639,-1.01353 0.41345,-1.20438 z m -18.042111,15.16697 h 3.276955 c 0.6477,0 1.172278,0.52458 1.172278,1.17193 v 3.27695 c 0,0.90241 0.327732,1.72791 0.870305,2.36467 0.347837,0.40817 1.021292,0.14534 1.021292,-0.39123 v -2.39748 c 0,-0.4639 0.310795,-0.89147 0.765878,-0.98213 0.611013,-0.121 1.152173,0.34925 1.152173,0.94015 v 3.53131 c 0,0.32279 0.261761,0.58455 0.584907,0.58455 h 2.187223 c 0.32314,0 0.5849,-0.26176 0.5849,-0.58455 v -3.48933 c 0,-0.4639 0.3108,-0.89147 0.76588,-0.98213 0.61102,-0.121 1.15218,0.34925 1.15218,0.94015 v 3.53131 c 0,0.32279 0.26176,0.58455 0.5849,0.58455 h 2.18722 c 0.32279,0 0.58491,-0.26176 0.58491,-0.58455 v -3.48933 c 0,-0.4639 0.3108,-0.89147 0.76553,-0.98213 0.61136,-0.121 1.15252,0.34925 1.15252,0.94015 v 3.53131 c 0,0.32279 0.26176,0.58455 0.58491,0.58455 h 2.18722 c 0.32279,0 0.58455,-0.26176 0.58455,-0.58455 v -3.48933 c 0,-0.4639 0.3108,-0.89147 0.76588,-0.98213 0.61137,-0.121 1.15253,0.34925 1.15253,0.94015 v 2.43946 c 0,0.53657 0.6731,0.7994 1.02129,0.39123 0.54257,-0.63676 0.8703,-1.46226 0.8703,-2.36467 v -3.27695 c 0,-0.64735 0.52458,-1.17193 1.17228,-1.17193 h 3.2766 c 2.01577,0 3.6502,-1.63442 3.6502,-3.64984 v -13.56854 c 0,-10.41717 -8.44515,-18.86196 -18.86233,-18.86196 v 0 c -10.417525,0 -18.862318,8.44479 -18.862318,18.86196 v 13.56819 c 0,2.01577 1.634067,3.65019 3.649837,3.65019"
         style="fill:#000000;fill-opacity:1;fill-rule:nonzero;stroke:none;stroke-width:0.0352777" />
    </g>
  </g>
</svg>
